<?xml version="1.0" encoding="utf-8"?>
<!-- Generator: Adobe Illustrator 22.0.0, SVG Export Plug-In . SVG Version: 6.00 Build 0)  -->
<svg version="1.1"
	 id="svg16" xmlns:cc="http://creativecommons.org/ns#" xmlns:dc="http://purl.org/dc/elements/1.1/" xmlns:rdf="http://www.w3.org/1999/02/22-rdf-syntax-ns#" xmlns:svg="http://www.w3.org/2000/svg"
	 xmlns="http://www.w3.org/2000/svg" xmlns:xlink="http://www.w3.org/1999/xlink" x="0px" y="0px" viewBox="0 0 6753.6 3112"
	 style="enable-background:new 0 0 6753.6 3112;" xml:space="preserve">
<style type="text/css">
	.st0{fill:#FFFFFF;stroke:#000000;stroke-miterlimit:10;}
	.st1{fill:#037563;stroke:#000000;stroke-miterlimit:10;}
	.st2{opacity:0.5;fill:#F0567B;}
	.st3{opacity:0.5;fill:#77C043;}
	.st4{opacity:0.5;fill:#F58543;}
	.st5{opacity:0.5;fill:#EAE722;}
	.st6{opacity:0.5;fill:#29AAE2;}
	.st7{opacity:0.5;fill:#457A93;}
	.st8{opacity:0.5;fill:#190F0B;}
</style>
<path class="st0" d="M1089.5,1550.8"/>
<path class="st1" d="M2237.5,1658.8"/>
<path class="st2" d="M900.9,1197.1l-704.7,101.6c-25.1,3.6-50.3-6.4-66-26.4l-440.3-559.5c-15.7-19.9-19.6-46.7-10.1-70.3
	L-55.8-18.7C-46.4-42.3-25.1-59,0-62.6l704.7-101.6c25.1-3.6,50.3,6.4,66,26.4l440.3,559.5c15.7,19.9,19.6,46.7,10.1,70.3
	l-264.4,661.1C947.3,1176.7,926.1,1193.5,900.9,1197.1z"/>
<path class="st3" d="M5693.3,3058.1l-685.8-521.4c-19.9-15.1-30.4-39.6-27.6-64.4l95.3-856.2c2.8-25.4,19.1-47.4,42.6-57.4
	l779.1-333.9c23.5-10.1,50.6-6.7,71,8.7l685.8,521.4c19.9,15.1,30.4,39.6,27.6,64.4l-95.3,856.2c-2.8,25.4-19.1,47.4-42.6,57.4
	l-779.1,333.9C5740.8,3077,5713.7,3073.6,5693.3,3058.1z"/>
<path class="st4" d="M1333,2917.9l-738.5,106.4c-25.1,3.6-50.3-6.4-66-26.4L67,2411.6c-15.7-19.9-19.6-46.7-10.1-70.3L334,1648.5
	c9.4-23.6,30.7-40.3,55.8-43.9l738.5-106.4c25.1-3.6,50.3,6.4,66,26.4l461.5,586.4c15.7,19.9,19.6,46.7,10.1,70.3L1388.8,2874
	C1379.4,2897.6,1358.1,2914.3,1333,2917.9z"/>
<path class="st5" d="M6756.5,951.3l-950.9,137c-25.1,3.6-50.3-6.4-66-26.4l-594.1-755c-15.7-19.9-19.6-46.7-10.1-70.3l356.8-892
	c9.4-23.6,30.7-40.3,55.8-43.9l950.9-137c25.1-3.6,50.3,6.4,66,26.4l594.1,755c15.7,19.9,19.6,46.7,10.1,70.3l-356.8,892
	C6802.9,930.9,6781.6,947.7,6756.5,951.3z"/>
<path class="st6" d="M2839.8,1914.7l-538.5,77.6c-163,23.5-326.2-41.8-428-171.2l-336.4-427.5c-101.8-129.4-126.9-303.3-65.8-456.3
	l202-505.1c61.2-152.9,199.2-261.6,362.3-285.1l538.5-77.6c163-23.5,326.2,41.8,428,171.2l336.4,427.5
	c101.8,129.4,126.9,303.3,65.8,456.3l-202,505.1C3140.9,1782.5,3002.8,1891.2,2839.8,1914.7z"/>
<path class="st7" d="M4915.5,238.3l-152.4-109.6c-5.8-4.2-14.5-3.4-19.3,1.7l-660.3,706.4l-288.6-659.4c-2.7-6.2-10.7-9.3-17.7-6.9
	l-184,62c-7,2.4-10.6,9.3-7.9,15.5l334.4,764L2885.3,2118.7c-4.8,5.1-3.9,12.7,1.9,16.9l152.4,109.6c5.8,4.2,14.5,3.4,19.3-1.7
	l953.5-1020.1l623.7,1424.9c2.7,6.2,10.7,9.3,17.7,6.9l184-62c7-2.4,10.6-9.3,7.9-15.5l-669.5-1529.5l741.3-793.1
	C4922.1,250.1,4921.3,242.5,4915.5,238.3z"/>
<path class="st8" d="M2771.5,2432.8c-10.5,0-20.9,0.6-31.1,1.8c-16.9-136.3-133.1-241.8-273.9-241.8c-152.4,0-276,123.6-276,276
	c0,48.6,12.6,94.2,34.6,133.9c-66.7,50.4-109.8,130.3-109.8,220.4c0,152.4,123.6,276,276,276c106.8,0,199.4-60.7,245.3-149.4
	c39.9,22.4,85.9,35.2,134.9,35.2c152.4,0,276-123.6,276-276S2923.9,2432.8,2771.5,2432.8z"/>
</svg>
